<svg xmlns="http://www.w3.org/2000/svg" xmlns:xlink="http://www.w3.org/1999/xlink" width="40" zoomAndPan="magnify" viewBox="0 0 30 30.000001" height="40" preserveAspectRatio="xMidYMid meet" version="1.0"><defs><clipPath id="a6e1b1d355"><path d="M 0.484375 0 L 29.515625 0 L 29.515625 29.03125 L 0.484375 29.03125 Z M 0.484375 0 " clip-rule="nonzero"/></clipPath><clipPath id="4c2bfe2674"><path d="M 0.84375 2.078125 L 15 2.078125 L 15 26.753906 L 0.84375 26.753906 Z M 0.84375 2.078125 " clip-rule="nonzero"/></clipPath><clipPath id="b2cd12930d"><path d="M 15 2.078125 L 29.152344 2.078125 L 29.152344 26.753906 L 15 26.753906 Z M 15 2.078125 " clip-rule="nonzero"/></clipPath></defs><g clip-path="url(#a6e1b1d355)"><path fill="#ffffff" d="M 0.484375 0 L 29.515625 0 L 29.515625 29.03125 L 0.484375 29.03125 Z M 0.484375 0 " fill-opacity="1" fill-rule="nonzero"/><path fill="#ffffff" d="M 0.484375 0 L 29.515625 0 L 29.515625 29.03125 L 0.484375 29.03125 Z M 0.484375 0 " fill-opacity="1" fill-rule="nonzero"/></g><g clip-path="url(#4c2bfe2674)"><path fill="#0069ea" d="M 14.085938 8.175781 L 14.085938 20.914062 C 13.238281 20.542969 12.140625 20.019531 11.257812 19.5 L 11.257812 14.300781 L 7.347656 14.300781 L 7.347656 18.914062 C 7.304688 20.695312 11.421875 22.660156 14.085938 23.738281 L 14.085938 26.753906 C 8.15625 24.554688 4.449219 22 4.523438 18.847656 L 4.523438 4.898438 L 3.691406 4.898438 C 2.125 4.898438 0.84375 3.632812 0.84375 2.078125 L 14.085938 2.078125 Z M 11.257812 4.898438 L 7.347656 4.898438 L 7.347656 11.496094 L 11.257812 11.496094 Z M 11.257812 4.898438 " fill-opacity="1" fill-rule="evenodd"/></g><g clip-path="url(#b2cd12930d)"><path fill="#4a9bff" d="M 25.476562 8.175781 L 25.476562 11.210938 L 23.773438 12.894531 L 25.476562 14.585938 L 25.476562 18.847656 C 25.511719 20.511719 24.496094 22.015625 22.648438 23.382812 L 22.648438 18.984375 C 22.65625 18.960938 22.65625 18.9375 22.648438 18.914062 L 22.648438 14.300781 L 18.738281 14.300781 L 18.738281 25.597656 C 17.863281 25.996094 16.921875 26.382812 15.914062 26.753906 L 15.914062 2.078125 L 18.738281 2.078125 L 18.738281 11.496094 L 22.648438 11.496094 L 22.648438 2.078125 L 29.152344 2.078125 C 29.152344 3.632812 27.871094 4.898438 26.308594 4.898438 L 25.476562 4.898438 Z M 25.476562 8.175781 " fill-opacity="1" fill-rule="evenodd"/></g></svg>